<svg version="1" xmlns="http://www.w3.org/2000/svg" width="682.667" height="682.667" viewBox="0 0 512.000000 512.000000"><path d="M232.5 62.1c-9.8 1.4-26.4 5.9-36 9.6-25.7 10.1-42.7 21.8-54.5 37.5-15 19.8-21.7 43.6-24 84.1-1.6 27.7-.3 57.7 5.6 131.2 1.6 19.9 2.3 34.4 1.9 38.3-2.1 19.8-13.3 41.7-35.1 68.9-4.7 5.8-8.3 11.1-8 11.9 1.3 3.3 38.3 31.4 41.4 31.4.5 0 3.2-5.1 6-11.3 14.3-31.7 20.1-52.5 20.3-72.6.1-4.7.4-12.4.8-17.1l.7-8.5-7.3-7.1c-9-8.8-12.3-15.2-12.3-24.2 0-10.5 3.5-15.9 18.1-27.7l7.6-6.1-4-4.4c-9.1-10.4-14.1-25.2-14-42.5 0-12.6 1.8-21.7 6.3-31 10.3-21.5 31-27.4 45.2-12.8 10.2 10.5 15.2 25 15.2 43.8 0 6.6-.5 13.7-1.1 15.7l-1.1 3.7 9.1-.5c16.8-1.1 33.8 3.2 63.7 16.1 9.2 3.9 20.4 7.9 27.5 9.7 15 3.7 25.5 8.6 29.2 13.5 2.6 3.4 2.8 4.3 2.6 12.2 0 4.7-.6 10.5-1.1 12.9-.9 3.8-.6 5.5 1.8 12.5 4.6 13.6 16.2 43.9 33.2 86.5 11.8 29.8 16.4 40.2 17.4 39.8 2.9-1.1 19.9-13 29.2-20.6 11.1-8.9 27.5-25 35.7-35 3-3.7 5.5-7 5.5-7.3 0-.3-3.3-5.8-7.4-12.4-19.2-30.9-30.7-58-39.5-92.8-7.4-29.6-9.1-46.4-6.6-67.5 2.2-18.8 1.3-30.3-4.4-54.6-7.2-30.3-23.6-64.5-38.5-80.3-8.2-8.7-20.4-17.6-30.1-22.1-29.8-13.8-31.1-14.4-45.1-17.9-15.9-4-38.4-5.2-53.9-3zM313 228.6c8.7 4 16.9 10.3 20.2 15.1 3.4 5.3 1.3 16.3-3.3 16.3-1.1 0-5.1-2.9-8.8-6.4-8.1-7.6-12.8-10.2-21-11.5-7.5-1.2-12.4-.1-28.3 6.5-13.6 5.6-20.6 6.6-23.7 3.5-1.1-1.1-2.1-2.9-2.1-3.9 0-5.7 9.2-13.2 22.5-18.3 11.4-4.4 18.8-5.9 28.1-5.6 6.9.3 9.2.9 16.4 4.3z"/><path d="M165 230.2c-12.1 8.2-12.8 36.7-1.5 52.1 5.6 7.5 6.6 7.6 16.4 1.7 4.6-2.7 8.8-5 9.2-5 1.6 0 3.1-8.5 3.1-16.5-.1-14.1-5.6-26.5-14.1-32.2-4.3-2.9-8.9-2.9-13.1-.1zM194.4 293.6c-4 4.2-4.1 4.8-1.2 6.8 2.1 1.5 2.4 1.4 5.3-1.3 1.6-1.7 4.2-3.4 5.8-4 3-1.2 3.6-3.5 1.1-4.5-4-1.6-7.7-.6-11 3zM233 292.5c0 1.5 1.3 2.5 9.3 7.6 7.8 5.1 10.8 1 4.2-5.6-3-3.1-4.1-3.5-8.5-3.5-3.7 0-5 .4-5 1.5zM300.6 319.1c-4.3 2.2-11.9 6.5-17 9.6-13.3 8.1-36.4 19.4-49.3 24.2L223 357h-17.4c-14.9 0-18.4-.3-24.2-2.1-9.8-3-19.8-8.4-27.9-14.9-9.7-7.8-12-9.1-13.9-8.4-.9.3-1.6.9-1.6 1.3 0 1.6 20.9 21.1 26 24.3 3 1.9 9.6 5.1 14.5 7.1l9 3.7H204c17.3 0 26.4-1.4 37.7-5.9 7.7-3 34.9-16.8 39.6-20 2.3-1.6 7.1-4.3 10.7-6.1 8.6-4.3 21-12.3 23.9-15.4 2-2.1 2.2-2.8 1.1-4.1-2.2-2.7-8-1.8-16.4 2.6z"/></svg>