<?xml version="1.0" encoding="UTF-8" standalone="no"?>
<!-- Generator: Adobe Illustrator 22.1.0, SVG Export Plug-In . SVG Version: 6.00 Build 0)  -->

<svg
   xmlns:dc="http://purl.org/dc/elements/1.1/"
   xmlns:cc="http://creativecommons.org/ns#"
   xmlns:rdf="http://www.w3.org/1999/02/22-rdf-syntax-ns#"
   xmlns:svg="http://www.w3.org/2000/svg"
   xmlns="http://www.w3.org/2000/svg"
   xmlns:sodipodi="http://sodipodi.sourceforge.net/DTD/sodipodi-0.dtd"
   xmlns:inkscape="http://www.inkscape.org/namespaces/inkscape"
   version="1.1"
   x="0px"
   y="0px"
   viewBox="0 0 260.9 74"
   style="enable-background:new 0 0 260.9 74;"
   xml:space="preserve"
   id="svg36"
   sodipodi:docname="balena.svg"
   inkscape:version="0.92.2 5c3e80d, 2017-08-06"><metadata
     id="metadata42"><rdf:RDF><cc:Work
         rdf:about=""><dc:format>image/svg+xml</dc:format><dc:type
           rdf:resource="http://purl.org/dc/dcmitype/StillImage" /></cc:Work></rdf:RDF></metadata><defs
     id="defs40" /><sodipodi:namedview
     pagecolor="#ffffff"
     bordercolor="#666666"
     borderopacity="1"
     objecttolerance="10"
     gridtolerance="10"
     guidetolerance="10"
     inkscape:pageopacity="0"
     inkscape:pageshadow="2"
     inkscape:window-width="1366"
     inkscape:window-height="704"
     id="namedview38"
     showgrid="false"
     inkscape:zoom="1.8474512"
     inkscape:cx="117.38544"
     inkscape:cy="102.27172"
     inkscape:window-x="0"
     inkscape:window-y="817"
     inkscape:window-maximized="1"
     inkscape:current-layer="svg36" /><style
     type="text/css"
     id="style2">
	.st0{display:none;}
	.st1{display:inline;}
	.st2{fill:#FFFFFF;}
	.st3{fill:#FFC100;}
	.st4{fill:#F6EB61;}
	.st5{fill:#439879;}
	.st6{fill:#28CDFB;}
	.st7{fill:#FDD757;}
	.st8{fill:#EC8B00;}
</style><g
     id="type"
     class="st0"><text
       transform="matrix(1 0 0 1 264.4807 53.6223)"
       class="st1"
       style="font-family:'ITCAvantGardeStd-Bold'; font-size:46.2px;"
       id="text4">Fin</text>
</g><g
     id="g888"><g
       style="fill:#2a506f;fill-opacity:1"
       id="g19"><path
         class="st2"
         d="m 88.8,19.7 h 6.7 v 11.1 h 0.1 c 0.7,-1 1.7,-1.7 2.9,-2.3 1.2,-0.5 2.5,-0.9 3.8,-1.1 0.3,0 0.7,-0.1 1,-0.1 0.3,0 0.6,0 0.9,0 4.1,0 7.5,1.4 10.1,4.1 2.6,2.7 3.9,5.9 3.9,9.4 0,0.5 0,1.1 -0.1,1.6 -0.1,0.6 -0.2,1.1 -0.4,1.7 -0.3,1.1 -0.7,2.2 -1.2,3.2 -0.5,1 -1.2,2 -1.9,2.7 -1.2,1.4 -2.8,2.4 -4.6,3.1 -1.8,0.7 -3.7,1.1 -5.6,1.1 -1.9,0 -3.7,-0.3 -5.3,-1 -1.6,-0.7 -3,-1.7 -4.1,-3.2 h -0.1 v 3.4 H 88.7 V 19.7 Z m 8.8,15.7 c -1.7,1.4 -2.5,3.1 -2.5,5.2 0,2.2 0.8,4.1 2.3,5.6 1.5,1.5 3.6,2.3 6.1,2.3 2.4,0 4.3,-0.7 5.8,-2.2 1.5,-1.4 2.2,-3.2 2.2,-5.4 0,-2.1 -0.7,-3.9 -2.2,-5.4 -1.5,-1.5 -3.4,-2.2 -5.8,-2.2 -2.3,0 -4.2,0.7 -5.9,2.1 z"
         id="path7"
         inkscape:connector-curvature="0"
         style="fill:#2a506f;fill-opacity:1" /><path
         class="st2"
         d="m 150.3,53.6 h -6.2 V 50.2 H 144 c -0.8,1.1 -1.9,2 -3.3,2.7 -1.4,0.7 -2.8,1.2 -4.3,1.4 -0.3,0 -0.6,0.1 -0.9,0.1 -0.3,0 -0.6,0 -0.9,0 -2.2,0 -4.1,-0.4 -5.8,-1.1 -1.7,-0.7 -3.2,-1.8 -4.4,-3.1 -1.1,-1.2 -2,-2.6 -2.6,-4.2 -0.6,-1.6 -0.9,-3.3 -0.9,-5 0,-1.8 0.3,-3.4 0.8,-4.9 0.6,-1.5 1.5,-2.9 2.7,-4.2 1.4,-1.5 3,-2.6 4.7,-3.3 1.7,-0.7 3.6,-1.1 5.7,-1.1 1.9,0 3.7,0.4 5.3,1.1 1.6,0.7 3,1.8 4.1,3.3 v -3.6 h 6.2 V 53.6 Z M 144,40.8 c 0,-2.1 -0.7,-3.9 -2.2,-5.3 -1.5,-1.5 -3.4,-2.2 -5.8,-2.1 -2.5,0 -4.5,0.7 -6,2.2 -1.6,1.5 -2.3,3.4 -2.3,5.6 0,2.1 0.8,3.8 2.4,5.2 1.6,1.4 3.6,2.1 5.8,2.1 2.4,0 4.4,-0.7 5.9,-2.2 1.4,-1.4 2.2,-3.3 2.2,-5.5 z"
         id="path9"
         inkscape:connector-curvature="0"
         style="fill:#2a506f;fill-opacity:1" /><path
         class="st2"
         d="m 155.3,19.7 h 6.7 v 33.9 h -6.7 z"
         id="path11"
         inkscape:connector-curvature="0"
         style="fill:#2a506f;fill-opacity:1" /><path
         class="st2"
         d="m 173.3,43.6 c 0.5,1.5 1.4,2.7 2.8,3.6 1.4,0.9 2.9,1.3 4.6,1.3 1.3,0 2.5,-0.2 3.6,-0.6 1.1,-0.4 2,-0.9 2.6,-1.6 h 7.4 c -0.8,2.3 -2.5,4.2 -5.1,5.8 -2.6,1.6 -5.3,2.4 -8.3,2.4 -4.1,0 -7.5,-1.3 -10.4,-3.9 -2.9,-2.6 -4.3,-5.7 -4.3,-9.4 0,-3.8 1.4,-7 4.3,-9.7 2.9,-2.7 6.4,-4 10.5,-4 4,0 7.4,1.3 10.2,4 2.8,2.7 4.2,5.8 4.2,9.3 0,0.4 0,0.8 -0.1,1.2 -0.1,0.4 -0.1,0.8 -0.2,1.1 0,0.1 -0.1,0.2 -0.1,0.3 0,0.1 0,0.2 0,0.3 h -21.7 z m 15.3,-5.4 c -0.5,-1.5 -1.5,-2.7 -2.9,-3.5 -1.4,-0.9 -3,-1.3 -4.7,-1.3 -0.1,0 -0.1,0 -0.2,0 -0.1,0 -0.1,0 -0.2,0 -1.6,0.1 -3.1,0.6 -4.5,1.4 -1.4,0.9 -2.4,2 -2.8,3.4 z"
         id="path13"
         inkscape:connector-curvature="0"
         style="fill:#2a506f;fill-opacity:1" /><path
         class="st2"
         d="m 199.7,28.2 h 6.2 v 2.3 h 0.1 c 0.8,-0.9 1.8,-1.7 3,-2.2 1.3,-0.5 2.6,-0.8 4,-0.9 0.1,0 0.2,0 0.3,0 0.1,0 0.2,0 0.3,0 0.1,0 0.3,0 0.4,0 0.1,0 0.3,0 0.4,0 1.3,0.1 2.6,0.4 3.9,1 1.3,0.5 2.3,1.3 3.3,2.2 0.1,0.1 0.3,0.2 0.4,0.3 0.1,0.1 0.2,0.2 0.3,0.4 1.1,1.4 1.7,2.8 1.9,4.4 0.2,1.6 0.3,3.1 0.3,4.8 v 13.1 h -6.7 v -12 c 0,-0.4 0,-0.8 0,-1.2 0,-0.4 0,-0.9 -0.1,-1.3 -0.1,-0.7 -0.2,-1.3 -0.4,-1.9 -0.2,-0.6 -0.4,-1.2 -0.8,-1.7 -0.4,-0.6 -1,-1.1 -1.8,-1.5 -0.8,-0.4 -1.5,-0.6 -2.3,-0.6 0,0 -0.1,0 -0.1,0 -0.1,0 -0.1,0 -0.2,0 -0.1,0 -0.2,0 -0.3,0 -0.1,0 -0.2,0 -0.4,0 -0.8,0.1 -1.5,0.3 -2.3,0.7 -0.7,0.4 -1.3,0.9 -1.7,1.5 -0.3,0.5 -0.6,1.1 -0.8,1.7 -0.2,0.7 -0.3,1.3 -0.3,2 0,0.4 0,0.8 0,1.2 0,0.4 0,0.8 0,1.1 0,0.1 0,0.2 0,0.3 0,0.1 0,0.1 0,0.2 v 11.5 h -6.7 V 28.2 Z"
         id="path15"
         inkscape:connector-curvature="0"
         style="fill:#2a506f;fill-opacity:1" /><path
         class="st2"
         d="M 258.2,53.6 H 252 v -3.4 h -0.1 c -0.8,1.1 -1.9,2 -3.3,2.7 -1.4,0.7 -2.8,1.2 -4.3,1.4 -0.3,0 -0.6,0.1 -0.9,0.1 -0.3,0 -0.6,0 -0.9,0 -2.2,0 -4.1,-0.4 -5.8,-1.1 -1.7,-0.7 -3.2,-1.8 -4.4,-3.1 -1.1,-1.2 -2,-2.6 -2.6,-4.2 -0.6,-1.6 -0.9,-3.3 -0.9,-5 0,-1.8 0.3,-3.4 0.8,-4.9 0.6,-1.5 1.5,-2.9 2.7,-4.2 1.4,-1.5 3,-2.6 4.7,-3.3 1.7,-0.7 3.6,-1.1 5.7,-1.1 1.9,0 3.7,0.4 5.3,1.1 1.6,0.7 3,1.8 4.1,3.3 v -3.6 h 6.2 v 25.3 z m -6.4,-12.8 c 0,-2.1 -0.7,-3.9 -2.2,-5.3 -1.5,-1.5 -3.4,-2.2 -5.8,-2.1 -2.5,0 -4.5,0.7 -6,2.2 -1.6,1.5 -2.3,3.4 -2.3,5.6 0,2.1 0.8,3.8 2.4,5.2 1.6,1.4 3.6,2.1 5.8,2.1 2.4,0 4.4,-0.7 5.9,-2.2 1.5,-1.4 2.2,-3.3 2.2,-5.5 z"
         id="path17"
         inkscape:connector-curvature="0"
         style="fill:#2a506f;fill-opacity:1" /></g><g
       id="g33"><path
         class="st3"
         d="m 34.9,43.9 v 20.6 c 0.9,-0.2 1.7,-0.4 2.5,-0.9 l 17.1,-9.8 c 2.5,-1.4 4,-4.1 4,-7 V 27.3 c 0,-0.8 -0.1,-1.6 -0.4,-2.3 L 39.6,35.7 c -3.9,2.7 -4.7,5.2 -4.7,8.2 z"
         id="path21"
         inkscape:connector-curvature="0"
         style="fill:#ffc100" /><path
         class="st4"
         d="m 64.9,21 -6.8,3.9 c 0.2,0.7 0.4,1.5 0.4,2.3 v 19.6 c 0,2.9 -1.6,5.6 -4,7 l -17.1,9.8 c -0.8,0.4 -1.6,0.7 -2.5,0.9 v 7.8 c 1.2,-0.2 2.4,-0.6 3.4,-1.2 L 60.5,58.4 c 3.1,-1.8 5,-5.1 5,-8.7 V 24.3 c 0,-1.1 -0.2,-2.2 -0.6,-3.3 z"
         id="path23"
         inkscape:connector-curvature="0"
         style="fill:#f6eb61" /><path
         class="st5"
         d="m 33.3,37.4 c 1,-1.6 2.5,-3.1 4.7,-4.4 L 56.7,22.2 c -0.6,-0.8 -1.4,-1.5 -2.2,-2 L 37.4,10.4 C 34.9,9 31.8,9 29.3,10.4 l -17,9.8 c -0.9,0.5 -1.6,1.2 -2.3,2 L 28.6,33 c 2.2,1.4 3.7,2.8 4.7,4.4 z"
         id="path25"
         inkscape:connector-curvature="0"
         style="fill:#439879" /><path
         class="st6"
         d="m 12.3,20.3 17,-9.8 c 2.5,-1.4 5.6,-1.4 8.1,0 l 17.1,9.8 c 0.9,0.5 1.6,1.2 2.2,2 l 6.8,-3.9 c -0.8,-1.1 -1.8,-2 -3,-2.6 L 38.3,2.9 c -3.1,-1.8 -6.9,-1.8 -10,0 l -22,12.8 c -1.2,0.7 -2.2,1.6 -3,2.7 l 6.8,3.9 c 0.5,-0.8 1.3,-1.5 2.2,-2 z"
         id="path27"
         inkscape:connector-curvature="0"
         style="fill:#28cdfb" /><path
         class="st7"
         d="m 29.3,63.6 -17,-9.8 c -2.5,-1.4 -4,-4.1 -4,-7 V 27.2 C 8.3,26.4 8.4,25.7 8.6,25 L 1.8,21.1 c -0.4,1.1 -0.6,2.1 -0.6,3.2 v 25.5 c 0,3.6 1.9,6.9 5,8.6 l 22.1,12.7 c 1,0.6 2.2,1 3.4,1.2 v -7.8 c -0.8,-0.1 -1.6,-0.4 -2.4,-0.9 z"
         id="path29"
         inkscape:connector-curvature="0"
         style="fill:#fdd757" /><path
         class="st8"
         d="M 27,35.6 8.6,25 c -0.2,0.7 -0.3,1.5 -0.3,2.2 v 19.6 c 0,2.9 1.5,5.6 4,7 l 17,9.8 c 0.8,0.4 1.6,0.7 2.5,0.9 V 43.9 c -0.1,-3 -0.9,-5.5 -4.8,-8.3 z"
         id="path31"
         inkscape:connector-curvature="0"
         style="fill:#ec8b00" /></g></g></svg>