<?xml version="1.0" encoding="UTF-8" standalone="no"?>
<svg
   xmlns:dc="http://purl.org/dc/elements/1.1/"
   xmlns:cc="http://creativecommons.org/ns#"
   xmlns:rdf="http://www.w3.org/1999/02/22-rdf-syntax-ns#"
   xmlns:svg="http://www.w3.org/2000/svg"
   xmlns="http://www.w3.org/2000/svg"
   xmlns:sodipodi="http://sodipodi.sourceforge.net/DTD/sodipodi-0.dtd"
   xmlns:inkscape="http://www.inkscape.org/namespaces/inkscape"
   width="243"
   height="42"
   viewBox="0 0 243 42"
   version="1.1"
   id="svg16"
   sodipodi:docname="balena-etcher.svg"
   inkscape:version="0.92.2 5c3e80d, 2017-08-06">
  <metadata
     id="metadata22">
    <rdf:RDF>
      <cc:Work
         rdf:about="">
        <dc:format>image/svg+xml</dc:format>
        <dc:type
           rdf:resource="http://purl.org/dc/dcmitype/StillImage" />
      </cc:Work>
    </rdf:RDF>
  </metadata>
  <defs
     id="defs20" />
  <sodipodi:namedview
     pagecolor="#ffffff"
     bordercolor="#666666"
     borderopacity="1"
     objecttolerance="10"
     gridtolerance="10"
     guidetolerance="10"
     inkscape:pageopacity="0"
     inkscape:pageshadow="2"
     inkscape:window-width="1366"
     inkscape:window-height="704"
     id="namedview18"
     showgrid="false"
     inkscape:zoom="1.9835391"
     inkscape:cx="81.344898"
     inkscape:cy="21"
     inkscape:window-x="0"
     inkscape:window-y="817"
     inkscape:window-maximized="1"
     inkscape:current-layer="svg16" />
  <g
     id="g858">
    <path
       d="m 57.092,19.986 c -0.996,0.805 -1.494,1.83 -1.494,3.077 0,1.32 0.458,2.426 1.375,3.321 0.916,0.895 2.121,1.342 3.615,1.342 1.414,0 2.56,-0.425 3.436,-1.278 0.876,-0.852 1.315,-1.912 1.315,-3.182 0,-1.25 -0.439,-2.315 -1.315,-3.194 -0.877,-0.88 -2.022,-1.32 -3.436,-1.32 -1.335,0.019 -2.5,0.43 -3.496,1.234 z M 51.864,10.7 h 3.974 v 6.588 h 0.059 c 0.438,-0.578 1.02,-1.025 1.748,-1.342 a 8.64,8.64 0 0 1 2.256,-0.637 c 0.2,-0.018 0.388,-0.031 0.568,-0.04 0.179,-0.01 0.358,-0.014 0.537,-0.014 2.43,0 4.422,0.805 5.976,2.413 1.554,1.609 2.33,3.47 2.33,5.585 0,0.307 -0.02,0.628 -0.059,0.962 -0.04,0.335 -0.11,0.664 -0.21,0.99 a 8.537,8.537 0 0 1 -0.716,1.898 7.321,7.321 0 0 1 -1.135,1.626 7.147,7.147 0 0 1 -2.72,1.857 9.033,9.033 0 0 1 -3.346,0.638 c -1.135,0 -2.186,-0.196 -3.152,-0.584 -0.967,-0.388 -1.768,-1.025 -2.405,-1.91 l -0.06,-0.028 v 2.033 H 51.864 Z M 84.58,23.199 c 0,-1.247 -0.443,-2.3 -1.33,-3.16 -0.886,-0.857 -2.036,-1.277 -3.45,-1.26 -1.455,-0.017 -2.644,0.416 -3.57,1.302 -0.927,0.886 -1.39,1.989 -1.39,3.307 0,1.23 0.483,2.264 1.45,3.104 0.965,0.84 2.116,1.253 3.45,1.234 1.435,0.019 2.6,-0.406 3.496,-1.274 0.896,-0.867 1.345,-1.943 1.345,-3.226 v -0.027 z m 3.766,7.536 H 84.7 v -2.033 h -0.06 c -0.498,0.65 -1.156,1.184 -1.972,1.6 a 8.684,8.684 0 0 1 -2.54,0.84 l -0.552,0.055 c -0.19,0.017 -0.374,0.026 -0.553,0.026 -1.275,0 -2.43,-0.222 -3.466,-0.664 a 7.57,7.57 0 0 1 -2.63,-1.83 7.802,7.802 0 0 1 -1.523,-2.494 8.297,8.297 0 0 1 -0.538,-2.982 c 0,-1.049 0.164,-2.015 0.493,-2.901 0.33,-0.885 0.872,-1.717 1.628,-2.494 0.837,-0.886 1.768,-1.541 2.794,-1.966 1.026,-0.424 2.146,-0.637 3.361,-0.637 1.136,0 2.182,0.222 3.138,0.664 a 6.45,6.45 0 0 1 2.42,1.939 v -2.142 h 3.646 v 15.02 z m 2.957,0 h 3.974 V 10.7 h -3.974 z m 19.719,-9.109 c -0.318,-0.886 -0.896,-1.581 -1.733,-2.087 a 5.265,5.265 0 0 0 -2.778,-0.76 h -0.24 a 5.714,5.714 0 0 0 -2.689,0.847 c -0.836,0.51 -1.394,1.176 -1.673,2 z m -9.052,3.2 c 0.298,0.885 0.85,1.59 1.657,2.114 a 4.858,4.858 0 0 0 2.705,0.786 c 0.756,0 1.468,-0.117 2.135,-0.352 0.668,-0.236 1.191,-0.551 1.57,-0.95 l 4.392,-0.027 c -0.498,1.356 -1.509,2.5 -3.033,3.43 -1.523,0.931 -3.162,1.397 -4.915,1.397 -2.41,0 -4.467,-0.764 -6.17,-2.291 -1.703,-1.527 -2.555,-3.385 -2.555,-5.572 0,-2.223 0.847,-4.13 2.54,-5.72 1.693,-1.59 3.775,-2.386 6.245,-2.386 2.37,0 4.377,0.789 6.02,2.366 1.643,1.576 2.466,3.41 2.466,5.5 0,0.236 -0.016,0.465 -0.046,0.69 -0.03,0.225 -0.065,0.447 -0.104,0.662 -0.02,0.073 -0.035,0.137 -0.045,0.19 a 0.887,0.887 0 0 0 -0.015,0.162 H 101.97 Z m 15.626,-9.11 h 3.675 V 17.1 h 0.06 c 0.457,-0.56 1.06,-0.994 1.808,-1.302 a 7.421,7.421 0 0 1 2.345,-0.542 h 0.598 c 0.079,0 0.16,0.01 0.239,0.027 a 6.948,6.948 0 0 1 2.315,0.57 6.38,6.38 0 0 1 1.928,1.273 l 0.224,0.204 c 0.069,0.063 0.134,0.14 0.194,0.23 0.637,0.814 1.016,1.682 1.135,2.603 0.12,0.922 0.18,1.862 0.18,2.82 v 7.753 h -3.974 v -7.78 c 0,-0.254 -0.011,-0.506 -0.03,-0.76 a 7.248,7.248 0 0 0 -0.21,-1.152 c -0.1,-0.37 -0.249,-0.708 -0.448,-1.017 a 2.757,2.757 0 0 0 -1.06,-0.867 3.84,3.84 0 0 0 -1.39,-0.38 h -0.373 c -0.07,0 -0.144,0.01 -0.224,0.028 a 3.917,3.917 0 0 0 -1.345,0.42 c -0.438,0.226 -0.777,0.52 -1.016,0.881 a 3.17,3.17 0 0 0 -0.448,1.017 c -0.1,0.389 -0.16,0.781 -0.18,1.179 -0.02,0.235 -0.029,0.47 -0.029,0.705 v 7.726 h -3.974 z m 30.924,7.483 c 0,-1.247 -0.443,-2.3 -1.33,-3.16 -0.886,-0.857 -2.036,-1.277 -3.45,-1.26 -1.455,-0.017 -2.645,0.416 -3.57,1.302 -0.927,0.886 -1.39,1.989 -1.39,3.307 0,1.23 0.483,2.264 1.449,3.104 0.966,0.84 2.116,1.253 3.451,1.234 1.434,0.019 2.6,-0.406 3.496,-1.274 0.896,-0.867 1.345,-1.943 1.345,-3.226 v -0.027 z m 3.765,7.536 h -3.645 v -2.033 h -0.06 c -0.498,0.65 -1.156,1.184 -1.972,1.6 a 8.694,8.694 0 0 1 -2.54,0.84 l -0.552,0.055 c -0.19,0.017 -0.373,0.026 -0.553,0.026 -1.275,0 -2.431,-0.222 -3.466,-0.664 -1.036,-0.443 -1.913,-1.053 -2.63,-1.83 a 7.793,7.793 0 0 1 -1.523,-2.494 8.298,8.298 0 0 1 -0.539,-2.982 c 0,-1.049 0.166,-2.015 0.493,-2.901 0.33,-0.885 0.872,-1.717 1.63,-2.494 0.836,-0.886 1.767,-1.541 2.793,-1.966 1.026,-0.424 2.146,-0.637 3.361,-0.637 1.136,0 2.182,0.222 3.137,0.664 a 6.45,6.45 0 0 1 2.42,1.939 v -2.142 h 3.646 v 15.02 z"
       id="path2"
       inkscape:connector-curvature="0"
       style="fill:#2a506f;fill-opacity:1;fill-rule:evenodd" />
    <path
       d="m 19.92,25.025 v 12.206 a 4.653,4.653 0 0 0 1.476,-0.528 l 10.119,-5.807 a 4.785,4.785 0 0 0 2.4,-4.14 V 15.175 a 4.6,4.6 0 0 0 -0.213,-1.363 l -11,6.334 c -2.261,1.596 -2.75,3.107 -2.781,4.88"
       id="path4"
       inkscape:connector-curvature="0"
       style="fill:#a5de37;fill-rule:evenodd" />
    <path
       d="m 37.715,11.5 -4.013,2.312 a 4.6,4.6 0 0 1 0.212,1.361 v 11.584 c 0,1.703 -0.92,3.29 -2.4,4.14 l -10.119,5.806 a 4.66,4.66 0 0 1 -1.474,0.529 v 4.61 a 5.788,5.788 0 0 0 2.033,-0.695 l 13.142,-7.542 a 5.92,5.92 0 0 0 2.967,-5.119 V 13.444 A 5.73,5.73 0 0 0 37.715,11.5"
       id="path6"
       inkscape:connector-curvature="0"
       style="fill:#c8f178;fill-rule:evenodd" />
    <path
       d="m 18.998,21.189 c 0.599,-0.975 1.49,-1.816 2.772,-2.621 L 32.84,12.192 A 4.678,4.678 0 0 0 31.515,11.034 L 21.395,5.228 A 4.809,4.809 0 0 0 16.62,5.23 L 6.542,11.033 C 6.012,11.338 5.567,11.749 5.2,12.217 l 11.02,6.346 c 1.288,0.81 2.18,1.651 2.778,2.626"
       id="path8"
       inkscape:connector-curvature="0"
       style="fill:#a5de37;fill-rule:evenodd" />
    <path
       d="M 6.542,11.033 16.62,5.23 a 4.808,4.808 0 0 1 4.776,-0.003 l 10.119,5.808 c 0.522,0.299 0.961,0.7 1.325,1.157 L 36.847,9.885 A 5.786,5.786 0 0 0 35.095,8.325 L 21.954,0.783 A 5.947,5.947 0 0 0 16.048,0.787 L 2.961,8.323 A 5.87,5.87 0 0 0 1.195,9.91 l 4.004,2.306 A 4.686,4.686 0 0 1 6.542,11.032 M 16.62,36.7 6.543,30.897 A 4.784,4.784 0 0 1 4.149,26.761 V 15.17 c 0,-0.456 0.074,-0.9 0.2,-1.326 L 0.335,11.531 A 5.76,5.76 0 0 0 0,13.438 v 15.055 a 5.916,5.916 0 0 0 2.96,5.114 l 13.088,7.537 c 0.62,0.356 1.302,0.585 2.028,0.696 V 37.227 A 4.644,4.644 0 0 1 16.62,36.7"
       id="path10"
       inkscape:connector-curvature="0"
       style="fill:#c8f178;fill-rule:evenodd" />
    <path
       d="M 15.276,20.133 4.35,13.843 c -0.127,0.426 -0.201,0.87 -0.201,1.326 V 26.76 c 0,1.702 0.917,3.287 2.394,4.136 L 16.62,36.7 c 0.458,0.262 0.95,0.43 1.456,0.525 V 25.022 c -0.032,-1.77 -0.52,-3.281 -2.8,-4.889 m 142.568,-9.585 h 11.474 v 4.537 h -6.299 v 3.143 h 6.107 v 4.536 h -6.107 v 3.472 h 6.299 v 4.537 h -11.474 z m 15.846,8.5 h -2.246 v -3.444 h 2.246 v -5.056 h 4.546 v 5.056 h 2.19 v 3.444 h -2.19 v 11.725 h -4.546 z m 23.802,5.958 c -0.822,3.443 -3.862,6.259 -7.969,6.259 -4.6,0 -8.133,-3.608 -8.133,-8.118 0,-4.454 3.477,-8.062 8.023,-8.062 4.026,0 7.284,2.65 8.051,6.368 h -4.6 c -0.493,-1.038 -1.397,-2.132 -3.286,-2.132 a 3.265,3.265 0 0 0 -2.629,1.066 c -0.63,0.71 -0.986,1.695 -0.986,2.787 0,2.214 1.451,3.854 3.615,3.854 1.889,0 2.793,-1.093 3.285,-2.022 z m 2.08,-14.458 h 4.546 v 6.45 c 0.821,-1.366 2.354,-1.913 3.97,-1.913 2.328,0 3.697,0.82 4.518,2.159 0.822,1.312 1.04,3.116 1.04,5.056 v 8.473 h -4.545 v -8.254 c 0,-0.848 -0.11,-1.64 -0.465,-2.214 -0.384,-0.574 -0.986,-0.957 -1.972,-0.957 -1.26,0 -1.917,0.575 -2.218,1.23 -0.328,0.656 -0.328,1.394 -0.328,1.777 v 8.418 h -4.546 z m 27.874,10.768 c -0.11,-0.71 -1.04,-2.405 -3.395,-2.405 -2.355,0 -3.286,1.695 -3.396,2.405 z M 220.6,24.76 c 0.192,1.612 1.726,2.678 3.505,2.678 1.452,0 2.219,-0.628 2.766,-1.42 h 4.656 c -0.74,1.694 -1.808,3.006 -3.094,3.88 a 7.397,7.397 0 0 1 -4.328,1.367 c -4.353,0 -8.05,-3.526 -8.05,-8.036 0,-4.236 3.34,-8.144 7.969,-8.144 2.327,0 4.326,0.902 5.75,2.405 1.917,2.05 2.492,4.482 2.136,7.27 H 220.6 Z m 13.938,-9.156 h 4.272 v 1.694 c 0.438,-0.819 1.232,-2.213 3.861,-2.213 v 4.564 h -0.165 c -2.327,0 -3.422,0.848 -3.422,2.98 v 8.144 h -4.546 z"
       id="path12"
       inkscape:connector-curvature="0"
       style="fill:#a5de37;fill-rule:evenodd" />
  </g>
</svg>
